<svg width="23" height="24" viewBox="0 0 23 24" fill="none" xmlns="http://www.w3.org/2000/svg">
<mask id="mask0_135_412" style="mask-type:alpha" maskUnits="userSpaceOnUse" x="0" y="0" width="23" height="24">
<path d="M11.375 9.87768C11.8538 9.87768 12.3279 9.78332 12.7702 9.59998C13.2125 9.41664 13.6144 9.14792 13.953 8.80916C14.2915 8.47039 14.5601 8.06822 14.7433 7.62561C14.9265 7.18299 15.0208 6.7086 15.0208 6.22952C15.0208 5.75044 14.9265 5.27604 14.7433 4.83343C14.5601 4.39081 14.2915 3.98864 13.953 3.64988C13.6144 3.31112 13.2125 3.0424 12.7702 2.85906C12.3279 2.67572 11.8538 2.58136 11.375 2.58136C10.4081 2.58136 9.48073 2.96572 8.79701 3.64988C8.11328 4.33404 7.72917 5.26197 7.72917 6.22952C7.72917 7.19707 8.11328 8.125 8.79701 8.80916C9.48073 9.49332 10.4081 9.87768 11.375 9.87768ZM2 20.7179V21.3433H20.75V20.7179C20.75 18.3831 20.75 17.2157 20.2958 16.3235C19.8964 15.539 19.259 14.9012 18.475 14.5015C17.5833 14.047 16.4167 14.047 14.0833 14.047H8.66667C6.33333 14.047 5.16667 14.047 4.275 14.5015C3.49103 14.9012 2.85363 15.539 2.45417 16.3235C2 17.2157 2 18.3831 2 20.7179Z" fill="white" stroke="white" stroke-width="4" stroke-linecap="round" stroke-linejoin="round"/>
</mask>
<g mask="url(#mask0_135_412)">
<path d="M-1.125 -0.545624H23.875V24.4703H-1.125V-0.545624Z" fill="#606060"/>
</g>
</svg>
