<svg width="66" height="64" viewBox="0 0 66 64" fill="none" xmlns="http://www.w3.org/2000/svg">
<path d="M63.6636 32C63.6636 48.8193 49.7734 62.5 32.5818 62.5C15.3902 62.5 1.5 48.8193 1.5 32C1.5 15.1807 15.3902 1.5 32.5818 1.5C49.7734 1.5 63.6636 15.1807 63.6636 32Z" fill="#D85105" stroke="#D85105" stroke-width="3"/>
<path d="M50.2468 11.6278C50.3672 11.6283 50.4832 11.6813 50.5726 11.7766C50.662 11.8719 50.7185 12.0029 50.7312 12.1444V12.1461L52.5386 33.8039L52.5401 33.8582C52.5401 34.1769 52.3223 34.4343 52.0527 34.4343H39.8557L39.8557 11.626L50.2468 11.6278ZM45.269 17.3452V17.3434C45.269 16.8928 45.156 16.4524 44.9442 16.0777C44.7324 15.7031 44.4314 15.4111 44.0792 15.2386C43.727 15.0662 43.3395 15.0211 42.9656 15.109C42.5917 15.1969 42.2483 15.4139 41.9787 15.7325C41.7092 16.0511 41.5256 16.457 41.4512 16.899C41.3769 17.3409 41.415 17.799 41.5609 18.2153C41.7068 18.6315 41.9538 18.9873 42.2708 19.2377C42.5877 19.488 42.9604 19.6216 43.3416 19.6216H43.3446C44.4097 19.6216 45.272 18.6025 45.2735 17.3434L45.269 17.3452ZM44.5579 31.3541C44.5579 31.0372 44.3401 30.7797 44.0705 30.7797H42.9386C42.8098 30.7797 42.6862 30.8403 42.595 30.948C42.5039 31.0557 42.4527 31.2018 42.4527 31.3541C42.4527 31.5064 42.5039 31.6525 42.595 31.7603C42.6862 31.868 42.8098 31.9285 42.9386 31.9285H44.0794C44.2086 31.9285 44.3326 31.8678 44.424 31.7597C44.5154 31.6517 44.5668 31.5052 44.5668 31.3524V31.3471L44.5579 31.3541ZM49.906 31.3541C49.906 31.0372 49.6883 30.7797 49.4201 30.7797L45.709 30.7797C45.5801 30.7797 45.4565 30.8403 45.3654 30.948C45.2743 31.0557 45.2231 31.2018 45.2231 31.3541C45.2231 31.5064 45.2743 31.6525 45.3654 31.7603C45.4565 31.868 45.5801 31.9285 45.709 31.9285L49.429 31.9285C49.5579 31.9285 49.6815 31.868 49.7726 31.7603C49.8637 31.6525 49.9149 31.5064 49.9149 31.3541V31.3489L49.906 31.3541ZM35.3875 14.9146C35.6486 15.0188 35.8952 15.1681 36.1194 15.3577L36.1105 15.3507L36.2586 15.461C36.6037 15.7169 36.9445 15.9808 37.2809 16.2525L37.4305 16.3768C37.626 16.5432 37.7179 16.6167 37.8186 16.6097C38.1742 16.601 38.5297 16.5974 38.8853 16.5922L38.8853 32.6237L38.9046 33.972C38.2364 34.4746 37.6201 34.9527 37.4349 35.1348C37.1831 35.7337 36.9342 36.2345 36.6586 36.7143L36.6838 36.667C36.5579 36.8999 36.432 37.131 36.3164 37.3604L33.7623 42.4282C33.6438 42.6663 33.5149 42.9045 33.386 43.1426C33.1712 43.5209 32.9431 43.9727 32.7342 44.4385L32.6986 44.5243C32.5816 44.8071 32.5408 45.1255 32.5816 45.4366L32.5801 45.4278L32.589 50.8913C32.4957 51.6863 32.1164 52.3588 31.5816 52.7685L31.5727 52.7755C31.0959 53.2831 30.4909 53.5909 29.8512 53.6511H29.8409L29.7475 53.6528C29.2423 53.6528 28.7653 53.511 28.3416 53.2606L28.3594 53.2711C28.0764 53.11 27.8349 52.9384 27.6083 52.7458L27.6231 52.758L27.466 52.6354C27.109 52.413 26.8423 52.0383 26.7238 51.5848L26.7209 51.5725C26.4438 50.3537 26.1905 49.2453 25.9549 48.1333L25.8572 47.6798C25.7075 47.0844 25.5786 46.3647 25.4957 45.6275L25.4883 45.5539C25.7416 42.7977 26.229 40.2831 26.9342 37.8875L26.872 38.1292L15.4749 38.1484H15.4335C15.0882 38.1484 14.7469 38.0615 14.4322 37.8936C14.1175 37.7257 13.8366 37.4806 13.6082 37.1745C13.3799 36.8685 13.2092 36.5085 13.1075 36.1184C13.0059 35.7284 12.9756 35.3173 13.0186 34.9124L13.0172 34.9264C12.9853 34.3146 13.091 33.7038 13.3237 33.156C13.5563 32.6082 13.9075 32.143 14.3416 31.8077L14.3535 31.7989C13.9377 31.0804 13.7432 30.215 13.8023 29.3473V29.3596C13.7504 28.672 13.8859 27.9829 14.189 27.3928C14.492 26.8027 14.9468 26.3426 15.4868 26.0797L15.5046 26.0727C15.1732 25.3744 15.0194 24.5779 15.0616 23.7788V23.7893C15.0294 23.1907 15.1343 22.5929 15.3653 22.0588C15.5963 21.5248 15.9448 21.0742 16.3742 20.7546L16.386 20.7458C16.0835 19.9449 15.9688 19.0624 16.0542 18.191L16.0527 18.2137V17.8845C16.0739 17.4532 16.1686 17.0314 16.3309 16.6444C16.4933 16.2573 16.7201 15.9129 16.9977 15.6319C17.2753 15.3509 17.598 15.1389 17.9465 15.0087C18.2951 14.8786 18.6622 14.8329 19.026 14.8744L19.0157 14.8726H25.5772L25.5994 14.8708L25.6231 14.8726H25.6216H34.3772C34.4527 14.8726 34.5312 14.8726 34.6142 14.8586C34.7149 14.8516 34.8216 14.8411 34.9312 14.8411H34.9535C35.1031 14.8409 35.2521 14.8645 35.3964 14.9111L35.3846 14.9076L35.3875 14.9146ZM44.2986 17.3434C44.2985 17.4907 44.2739 17.6365 44.2261 17.7726C44.1783 17.9086 44.1084 18.0322 44.0202 18.1363C43.932 18.2403 43.8273 18.3228 43.7122 18.3791C43.597 18.4354 43.4736 18.4643 43.349 18.4641C43.2244 18.464 43.101 18.4349 42.9859 18.3784C42.8709 18.322 42.7663 18.2392 42.6783 18.135C42.5902 18.0308 42.5204 17.9071 42.4728 17.771C42.4252 17.6348 42.4008 17.489 42.4009 17.3417C42.4011 17.0442 42.5012 16.759 42.6793 16.5488C42.8574 16.3387 43.0988 16.2207 43.3505 16.221C43.6021 16.2212 43.8434 16.3396 44.0212 16.5501C44.199 16.7606 44.2988 17.046 44.2986 17.3434Z" fill="white"/>
</svg>
