<svg width="66" height="64" viewBox="0 0 66 64" fill="none" xmlns="http://www.w3.org/2000/svg">
<path d="M63.6636 32C63.6636 48.8193 49.7734 62.5 32.5818 62.5C15.3902 62.5 1.5 48.8193 1.5 32C1.5 15.1807 15.3902 1.5 32.5818 1.5C49.7734 1.5 63.6636 15.1807 63.6636 32Z" stroke="#D85105" stroke-width="3"/>
<g clip-path="url(#clip0_135_499)">
<mask id="path-2-inside-1_135_499" fill="white">
<path d="M15.2914 53C15.171 52.9995 15.055 52.9465 14.9656 52.8513C14.8762 52.756 14.8197 52.6251 14.8069 52.4837V52.482L12.9995 30.838L12.998 30.7837C12.998 30.4652 13.2158 30.208 13.4855 30.208H25.6825V53.0017L15.2914 53ZM20.2692 47.2862V47.288C20.2692 47.7383 20.3822 48.1784 20.594 48.5529C20.8058 48.9273 21.1068 49.2191 21.459 49.3914C21.8112 49.5637 22.1987 49.6088 22.5726 49.521C22.9465 49.4331 23.2899 49.2163 23.5594 48.8979C23.829 48.5795 24.0126 48.1738 24.0869 47.7321C24.1613 47.2905 24.1231 46.8327 23.9773 46.4167C23.8314 46.0007 23.5843 45.6451 23.2674 45.3949C22.9504 45.1447 22.5778 45.0112 22.1966 45.0112H22.1936C21.1284 45.0112 20.2662 46.0297 20.2647 47.288L20.2692 47.2862ZM20.9803 33.2862C20.9803 33.603 21.198 33.8602 21.4677 33.8602H22.5995C22.7284 33.8602 22.852 33.7997 22.9431 33.6921C23.0343 33.5844 23.0855 33.4384 23.0855 33.2862C23.0855 33.134 23.0343 32.988 22.9431 32.8803C22.852 32.7727 22.7284 32.7122 22.5995 32.7122H21.4588C21.3295 32.7122 21.2055 32.7729 21.1141 32.8808C21.0227 32.9888 20.9714 33.1353 20.9714 33.288V33.2932L20.9803 33.2862ZM15.6321 33.2862C15.6321 33.603 15.8499 33.8602 16.118 33.8602H19.8292C19.958 33.8602 20.0816 33.7997 20.1728 33.6921C20.2639 33.5844 20.3151 33.4384 20.3151 33.2862C20.3151 33.134 20.2639 32.988 20.1728 32.8803C20.0816 32.7727 19.958 32.7122 19.8292 32.7122H16.1092C15.9803 32.7122 15.8567 32.7727 15.7656 32.8803C15.6744 32.988 15.6232 33.134 15.6232 33.2862V33.2915L15.6321 33.2862ZM30.1506 49.7152C29.8895 49.6111 29.6429 49.4619 29.4188 49.2725L29.4277 49.2795L29.2795 49.1692C28.9344 48.9135 28.5936 48.6498 28.2573 48.3782L28.1077 48.254C27.9121 48.0877 27.8203 48.0142 27.7195 48.0212C27.364 48.03 27.0084 48.0335 26.6529 48.0387V32.0175L26.6336 30.67C27.3018 30.1677 27.918 29.69 28.1032 29.508C28.3551 28.9095 28.604 28.409 28.8795 27.9295L28.8543 27.9767C28.9803 27.744 29.1062 27.513 29.2218 27.2837L31.7758 22.2192C31.8943 21.9812 32.0232 21.7432 32.1521 21.5052C32.3669 21.1272 32.5951 20.6757 32.804 20.2102L32.8395 20.1245C32.9566 19.8418 32.9974 19.5236 32.9566 19.2127L32.958 19.2215L32.9492 13.7615C33.0425 12.967 33.4218 12.295 33.9566 11.8855L33.9655 11.8785C34.4422 11.3712 35.0473 11.0636 35.6869 11.0035H35.6973L35.7906 11.0017C36.2958 11.0017 36.7729 11.1435 37.1966 11.3937L37.1788 11.3832C37.4617 11.5442 37.7032 11.7157 37.9299 11.9082L37.9151 11.896L38.0721 12.0185C38.4292 12.2407 38.6958 12.6152 38.8143 13.0685L38.8173 13.0807C39.0943 14.2987 39.3477 15.4065 39.5832 16.5177L39.681 16.971C39.8306 17.566 39.9595 18.2852 40.0425 19.022L40.0499 19.0955C39.7966 21.85 39.3092 24.363 38.604 26.757L38.6662 26.5155L50.0632 26.4962H50.1047C50.45 26.4962 50.7913 26.5831 51.106 26.7509C51.4207 26.9187 51.7015 27.1636 51.9299 27.4695C52.1583 27.7754 52.329 28.1352 52.4307 28.5249C52.5323 28.9147 52.5626 29.3255 52.5195 29.7302L52.521 29.7162C52.5529 30.3276 52.4471 30.9381 52.2145 31.4855C51.9819 32.033 51.6306 32.4979 51.1966 32.833L51.1847 32.8417C51.6004 33.5598 51.795 34.4246 51.7358 35.2917V35.2795C51.7877 35.9666 51.6522 36.6553 51.3492 37.245C51.0461 37.8347 50.5914 38.2945 50.0514 38.5572L50.0336 38.5642C50.365 39.2621 50.5188 40.0581 50.4766 40.8567V40.8462C50.5088 41.4444 50.4039 42.0418 50.1729 42.5755C49.9419 43.1093 49.5934 43.5595 49.164 43.879L49.1521 43.8877C49.4547 44.6882 49.5693 45.5701 49.484 46.441L49.4855 46.4182V46.7472C49.4642 47.1782 49.3696 47.5998 49.2072 47.9866C49.0448 48.3734 48.8181 48.7175 48.5405 48.9984C48.2629 49.2793 47.9401 49.4911 47.5916 49.6212C47.2431 49.7512 46.8759 49.7969 46.5121 49.7555L46.5225 49.7572H39.961L39.9388 49.759L39.9151 49.7572H39.9166H31.161C31.0855 49.7572 31.0069 49.7572 30.924 49.7712C30.8232 49.7782 30.7166 49.7887 30.6069 49.7887H30.5847C30.4351 49.7889 30.2861 49.7653 30.1418 49.7187L30.1536 49.7222L30.1506 49.7152ZM21.2395 47.288C21.2396 47.1408 21.2643 46.995 21.312 46.8591C21.3598 46.7231 21.4298 46.5996 21.518 46.4956C21.6062 46.3916 21.7108 46.3092 21.826 46.2529C21.9411 46.1967 22.0645 46.1678 22.1892 46.168C22.3138 46.1681 22.4371 46.1972 22.5522 46.2536C22.6673 46.3101 22.7719 46.3927 22.8599 46.4969C22.948 46.601 23.0178 46.7247 23.0654 46.8607C23.113 46.9967 23.1374 47.1425 23.1373 47.2897C23.1371 47.587 23.0369 47.872 22.8589 48.082C22.6808 48.2921 22.4393 48.4099 22.1877 48.4097C21.936 48.4095 21.6947 48.2912 21.5169 48.0808C21.3391 47.8704 21.2393 47.5852 21.2395 47.288Z"/>
</mask>
<path d="M15.2914 53C15.171 52.9995 15.055 52.9465 14.9656 52.8513C14.8762 52.756 14.8197 52.6251 14.8069 52.4837V52.482L12.9995 30.838L12.998 30.7837C12.998 30.4652 13.2158 30.208 13.4855 30.208H25.6825V53.0017L15.2914 53ZM20.2692 47.2862V47.288C20.2692 47.7383 20.3822 48.1784 20.594 48.5529C20.8058 48.9273 21.1068 49.2191 21.459 49.3914C21.8112 49.5637 22.1987 49.6088 22.5726 49.521C22.9465 49.4331 23.2899 49.2163 23.5594 48.8979C23.829 48.5795 24.0126 48.1738 24.0869 47.7321C24.1613 47.2905 24.1231 46.8327 23.9773 46.4167C23.8314 46.0007 23.5843 45.6451 23.2674 45.3949C22.9504 45.1447 22.5778 45.0112 22.1966 45.0112H22.1936C21.1284 45.0112 20.2662 46.0297 20.2647 47.288L20.2692 47.2862ZM20.9803 33.2862C20.9803 33.603 21.198 33.8602 21.4677 33.8602H22.5995C22.7284 33.8602 22.852 33.7997 22.9431 33.6921C23.0343 33.5844 23.0855 33.4384 23.0855 33.2862C23.0855 33.134 23.0343 32.988 22.9431 32.8803C22.852 32.7727 22.7284 32.7122 22.5995 32.7122H21.4588C21.3295 32.7122 21.2055 32.7729 21.1141 32.8808C21.0227 32.9888 20.9714 33.1353 20.9714 33.288V33.2932L20.9803 33.2862ZM15.6321 33.2862C15.6321 33.603 15.8499 33.8602 16.118 33.8602H19.8292C19.958 33.8602 20.0816 33.7997 20.1728 33.6921C20.2639 33.5844 20.3151 33.4384 20.3151 33.2862C20.3151 33.134 20.2639 32.988 20.1728 32.8803C20.0816 32.7727 19.958 32.7122 19.8292 32.7122H16.1092C15.9803 32.7122 15.8567 32.7727 15.7656 32.8803C15.6744 32.988 15.6232 33.134 15.6232 33.2862V33.2915L15.6321 33.2862ZM30.1506 49.7152C29.8895 49.6111 29.6429 49.4619 29.4188 49.2725L29.4277 49.2795L29.2795 49.1692C28.9344 48.9135 28.5936 48.6498 28.2573 48.3782L28.1077 48.254C27.9121 48.0877 27.8203 48.0142 27.7195 48.0212C27.364 48.03 27.0084 48.0335 26.6529 48.0387V32.0175L26.6336 30.67C27.3018 30.1677 27.918 29.69 28.1032 29.508C28.3551 28.9095 28.604 28.409 28.8795 27.9295L28.8543 27.9767C28.9803 27.744 29.1062 27.513 29.2218 27.2837L31.7758 22.2192C31.8943 21.9812 32.0232 21.7432 32.1521 21.5052C32.3669 21.1272 32.5951 20.6757 32.804 20.2102L32.8395 20.1245C32.9566 19.8418 32.9974 19.5236 32.9566 19.2127L32.958 19.2215L32.9492 13.7615C33.0425 12.967 33.4218 12.295 33.9566 11.8855L33.9655 11.8785C34.4422 11.3712 35.0473 11.0636 35.6869 11.0035H35.6973L35.7906 11.0017C36.2958 11.0017 36.7729 11.1435 37.1966 11.3937L37.1788 11.3832C37.4617 11.5442 37.7032 11.7157 37.9299 11.9082L37.9151 11.896L38.0721 12.0185C38.4292 12.2407 38.6958 12.6152 38.8143 13.0685L38.8173 13.0807C39.0943 14.2987 39.3477 15.4065 39.5832 16.5177L39.681 16.971C39.8306 17.566 39.9595 18.2852 40.0425 19.022L40.0499 19.0955C39.7966 21.85 39.3092 24.363 38.604 26.757L38.6662 26.5155L50.0632 26.4962H50.1047C50.45 26.4962 50.7913 26.5831 51.106 26.7509C51.4207 26.9187 51.7015 27.1636 51.9299 27.4695C52.1583 27.7754 52.329 28.1352 52.4307 28.5249C52.5323 28.9147 52.5626 29.3255 52.5195 29.7302L52.521 29.7162C52.5529 30.3276 52.4471 30.9381 52.2145 31.4855C51.9819 32.033 51.6306 32.4979 51.1966 32.833L51.1847 32.8417C51.6004 33.5598 51.795 34.4246 51.7358 35.2917V35.2795C51.7877 35.9666 51.6522 36.6553 51.3492 37.245C51.0461 37.8347 50.5914 38.2945 50.0514 38.5572L50.0336 38.5642C50.365 39.2621 50.5188 40.0581 50.4766 40.8567V40.8462C50.5088 41.4444 50.4039 42.0418 50.1729 42.5755C49.9419 43.1093 49.5934 43.5595 49.164 43.879L49.1521 43.8877C49.4547 44.6882 49.5693 45.5701 49.484 46.441L49.4855 46.4182V46.7472C49.4642 47.1782 49.3696 47.5998 49.2072 47.9866C49.0448 48.3734 48.8181 48.7175 48.5405 48.9984C48.2629 49.2793 47.9401 49.4911 47.5916 49.6212C47.2431 49.7512 46.8759 49.7969 46.5121 49.7555L46.5225 49.7572H39.961L39.9388 49.759L39.9151 49.7572H39.9166H31.161C31.0855 49.7572 31.0069 49.7572 30.924 49.7712C30.8232 49.7782 30.7166 49.7887 30.6069 49.7887H30.5847C30.4351 49.7889 30.2861 49.7653 30.1418 49.7187L30.1536 49.7222L30.1506 49.7152ZM21.2395 47.288C21.2396 47.1408 21.2643 46.995 21.312 46.8591C21.3598 46.7231 21.4298 46.5996 21.518 46.4956C21.6062 46.3916 21.7108 46.3092 21.826 46.2529C21.9411 46.1967 22.0645 46.1678 22.1892 46.168C22.3138 46.1681 22.4371 46.1972 22.5522 46.2536C22.6673 46.3101 22.7719 46.3927 22.8599 46.4969C22.948 46.601 23.0178 46.7247 23.0654 46.8607C23.113 46.9967 23.1374 47.1425 23.1373 47.2897C23.1371 47.587 23.0369 47.872 22.8589 48.082C22.6808 48.2921 22.4393 48.4099 22.1877 48.4097C21.936 48.4095 21.6947 48.2912 21.5169 48.0808C21.3391 47.8704 21.2393 47.5852 21.2395 47.288Z" stroke="#D85105" stroke-width="4" mask="url(#path-2-inside-1_135_499)"/>
</g>
<defs>
<clipPath id="clip0_135_499">
<rect width="40" height="42" fill="white" transform="translate(13 11)"/>
</clipPath>
</defs>
</svg>
